#!OML:ASF F:\VICON\USERDATA\INSTALL\rory3\rory3.ASF
:FULLY-SPECIFIED
:DEGREES
1749
root -1.26028 15.8934 -3.09003 157.049 143.739 166.901
lowerback 19.7934 3.35838 -12.9874
upperback 9.84539 2.42977 -0.0575096
thorax -0.680189 0.889804 6.79262
lowerneck -16.0077 -5.22594 -13.5315
upperneck 26.2162 -5.71029 8.06161
head 11.9026 -2.89182 4.46212
rclavicle 4.92986e-014 -4.77083e-014
rhumerus -40.902 5.35137 -88.8247
rradius 47.7805
rwrist 17.4138
rhand -24.9595 4.91308
rfingers 7.12502
rthumb 1.55068 -25.061
lclavicle 4.92986e-014 -4.77083e-014
lhumerus -57.6677 -24.704 98.9476
lradius 70.3063
lwrist 9.292
lhand -49.7052 46.7169
lfingers 7.12502
lthumb -22.3061 75.4494
rfemur -42.5096 -28.5714 34.8925
rtibia 101.223
rfoot -21.6798 -18.0136
rtoes 20.5515
lfemur -81.689 56.1944 -11.6981
ltibia 139.367
lfoot -19.21 -21.8912
ltoes -23.0409
1750
root -1.25856 15.897 -3.08883 157.031 143.59 166.932
lowerback 19.8398 3.35303 -12.9945
upperback 9.86573 2.41822 -0.0569859
thorax -0.678375 0.883615 6.79898
lowerneck -15.9196 -5.32589 -13.6355
upperneck 26.0288 -5.87246 8.20365
head 11.8417 -2.95733 4.50372
rclavicle -4.77083e-015 -3.18055e-015
rhumerus -41.1096 5.45644 -88.9533
rradius 47.8066
rwrist 17.4131
rhand -25.0831 4.96489
rfingers 7.12502
rthumb 1.43128 -25.0101
lclavicle -4.77083e-015 -3.18055e-015
lhumerus -57.399 -24.7253 98.9026
lradius 70.0423
lwrist 9.16369
lhand -49.6149 46.7937
lfingers 7.12502
lthumb -22.2194 75.5366
rfemur -42.446 -28.8704 34.7557
rtibia 101.106
rfoot -21.7664 -17.1082
rtoes 19.3232
lfemur -81.6024 55.9728 -11.7967
ltibia 139.305
lfoot -19.2769 -21.8232
ltoes -23.268
1751
root -1.25606 15.9035 -3.08552 157.007 143.365 166.886
lowerback 19.9027 3.3056 -12.9538
upperback 9.8378 2.35294 -0.048767
thorax -0.727995 0.856835 6.79745
lowerneck -15.722 -5.43762 -13.6956
upperneck 25.7887 -6.05724 8.27757
head 11.7383 -3.03853 4.50734
rclavicle 9.22361e-014 -3.18055e-014
rhumerus -41.4078 5.5254 -89.0829
rradius 47.8656
rwrist 17.4542
rhand -25.1272 5.10418
rfingers 7.12502
rthumb 1.38874 -24.871
lclavicle 9.22361e-014 -3.18055e-014
lhumerus -57.1892 -24.7147 98.8701
lradius 69.7909
lwrist 8.99936
lhand -49.4999 47.2631
lfingers 7.12502
lthumb -22.1091 76.0191
rfemur -42.428 -29.2144 34.6209
rtibia 100.941
rfoot -22.0239 -16.3958
rtoes 18.8655
lfemur -81.6096 55.6266 -11.9542
ltibia 139.232
lfoot -19.3305 -21.747
ltoes -23.6803
1752
root -1.25192 15.9092 -3.08227 156.86 143.263 166.559
lowerback 19.8903 3.2308 -12.6751
upperback 9.8112 2.30569 0.0365834
thorax -0.745329 0.842354 6.74398
lowerneck -15.5857 -5.56237 -13.7099
upperneck 25.6248 -6.24388 8.2703
head 11.6733 -3.12575 4.47352
rclavicle 6.36111e-014 -3.18055e-015
rhumerus -41.6503 5.59283 -89.1591
rradius 47.9049
rwrist 17.3779
rhand -24.805 5.39333
rfingers 7.12502
rthumb 1.69989 -24.5796
lclavicle 6.36111e-014 -3.18055e-015
lhumerus -57.0006 -24.6848 98.8604
lradius 69.5404
lwrist 8.85118
lhand -49.4228 47.7817
lfingers 7.12502
lthumb -22.035 76.5464
rfemur -42.457 -29.4913 34.7309
rtibia 100.669
rfoot -22.4096 -15.9722
rtoes 18.1459
lfemur -81.7304 55.5642 -11.7734
ltibia 139.222
lfoot -19.2404 -22.1117
ltoes -23.502
1753
root -1.246 15.9118 -3.07931 156.706 143.233 166.193
lowerback 19.8146 3.15785 -12.3855
upperback 9.79209 2.27248 0.150768
thorax -0.726137 0.831692 6.71418
lowerneck -15.514 -5.6755 -13.7991
upperneck 25.5348 -6.40217 8.31865
head 11.6512 -3.20063 4.47994
rclavicle 1.51076e-014 1.59028e-014
rhumerus -41.8247 5.80037 -89.2485
rradius 47.8995
rwrist 17.1826
rhand -24.4533 5.47355
rfingers 7.12502
rthumb 2.03956 -24.4964
lclavicle 1.51076e-014 1.59028e-014
lhumerus -56.7894 -24.5364 98.8271
lradius 69.2311
lwrist 8.68621
lhand -49.3376 47.7999
lfingers 7.12502
lthumb -21.9532 76.5742
rfemur -42.4764 -29.8014 34.8802
rtibia 100.288
rfoot -22.6991 -15.8433
rtoes 16.7196
lfemur -81.9779 55.591 -11.6271
ltibia 139.249
lfoot -19.2737 -22.4362
ltoes -23.4517
1754
root -1.24405 15.9311 -3.07581 156.763 143.004 166.266
lowerback 19.7731 3.12771 -12.5047
upperback 9.77747 2.21897 0.176986
thorax -0.710713 0.800338 6.8229
lowerneck -15.395 -5.79759 -13.9536
upperneck 25.4441 -6.58037 8.43311
head 11.6276 -3.2841 4.52026
rclavicle -2.54444e-014 -1.59028e-014
rhumerus -42.001 6.02058 -89.3424
rradius 47.8362
rwrist 17.0813
rhand -24.546 5.38078
rfingers 7.12502
rthumb 1.95009 -24.5901
lclavicle -2.54444e-014 -1.59028e-014
lhumerus -56.5722 -24.3175 98.7971
lradius 68.8786
lwrist 8.44319
lhand -49.2453 47.8589
lfingers 7.12502
lthumb -21.8645 76.6436
rfemur -42.377 -29.9821 34.5853
rtibia 99.7914
rfoot -22.7495 -15.9573
rtoes 15.9385
lfemur -81.7992 55.3073 -11.8623
ltibia 139.097
lfoot -19.4882 -22.4487
ltoes -23.4911
1755
root -1.23795 15.9308 -3.07088 156.648 142.743 166.095
lowerback 19.7932 3.06206 -12.3983
upperback 9.79144 2.15397 0.239757
thorax -0.69406 0.769077 6.8455
lowerneck -15.3886 -5.93391 -14.0223
upperneck 25.37 -6.79203 8.55998
head 11.6343 -3.37088 4.54453
rclavicle -1.66979e-014 9.54166e-015
rhumerus -42.0874 6.05114 -89.3966
rradius 47.7321
rwrist 17.0067
rhand -24.7261 5.28674
rfingers 7.12502
rthumb 1.77608 -24.6856
lclavicle -1.66979e-014 9.54166e-015
lhumerus -56.3178 -24.1896 98.7511
lradius 68.5581
lwrist 8.23849
lhand -49.2269 47.5001
lfingers 7.12502
lthumb -21.847 76.2868
rfemur -42.376 -30.5092 34.4481
rtibia 99.3901
rfoot -22.6051 -15.8503
rtoes 15.3763
lfemur -81.8548 54.8787 -11.8999
ltibia 139.117
lfoot -19.5311 -22.5148
ltoes -23.2406
1756
root -1.23627 15.9315 -3.06823 156.346 142.477 165.601
lowerback 19.9071 2.92941 -12.0448
upperback 9.77755 2.03051 0.364314
thorax -0.747212 0.720215 6.8061
lowerneck -15.4422 -6.04355 -13.9713
upperneck 25.2908 -6.96302 8.59025
head 11.6367 -3.43775 4.51683
rclavicle 9.14409e-014 -1.59028e-014
rhumerus -42.1977 6.06945 -89.4701
rradius 47.6519
rwrist 16.9875
rhand -24.7122 5.26696
rfingers 7.12502
rthumb 1.78949 -24.7053
lclavicle 9.14409e-014 -1.59028e-014
lhumerus -56.0914 -24.0449 98.7142
lradius 68.2292
lwrist 8.00737
lhand -49.2369 46.7871
lfingers 7.12502
lthumb -21.8565 75.5728
rfemur -42.4025 -31.0901 34.647
rtibia 99.0131
rfoot -22.5208 -15.7911
rtoes 14.3554
lfemur -82.2219 54.3851 -11.8753
ltibia 139.145
lfoot -19.522 -22.4938
ltoes -23.4607
1757
root -1.23818 15.9417 -3.0647 156.207 142.231 165.367
lowerback 19.9964 2.8393 -11.9439
upperback 9.74068 1.91882 0.449104
thorax -0.813422 0.671095 6.86421
lowerneck -15.3807 -6.12003 -13.9368
upperneck 25.1296 -7.1007 8.64256
head 11.5815 -3.49042 4.50509
rclavicle 5.96354e-014 3.18055e-014
rhumerus -42.3514 6.12942 -89.5743
rradius 47.5804
rwrist 17.0222
rhand -24.5447 5.12773
rfingers 7.12502
rthumb 1.95127 -24.8431
lclavicle 5.96354e-014 3.18055e-014
lhumerus -55.8563 -23.7935 98.6443
lradius 67.8765
lwrist 7.74637
lhand -49.2509 46.7525
lfingers 7.12502
lthumb -21.87 75.5365
rfemur -42.3662 -31.6063 34.6661
rtibia 98.7273
rfoot -22.5292 -15.6774
rtoes 13.222
lfemur -82.3062 53.9227 -11.9152
ltibia 139.066
lfoot -19.5661 -22.3967
ltoes -23.6478
1758
root -1.23842 15.9563 -3.05921 156.234 141.998 165.291
lowerback 19.9714 2.769 -11.9729
upperback 9.68233 1.82243 0.513946
thorax -0.847176 0.624382 6.97275
lowerneck -15.2799 -6.19474 -14.0151
upperneck 24.9884 -7.22395 8.74403
head 11.5319 -3.54283 4.53474
rclavicle 1.35174e-014 1.90833e-014
rhumerus -42.4706 6.1915 -89.6653
rradius 47.4044
rwrist 17.0517
rhand -24.7136 4.88338
rfingers 7.12502
rthumb 1.7882 -25.0889
lclavicle 1.35174e-014 1.90833e-014
lhumerus -55.5961 -23.4859 98.5594
lradius 67.5183
lwrist 7.63356
lhand -49.2557 47.0293
lfingers 7.12502
lthumb -21.8746 75.8128
rfemur -42.4131 -32.0865 34.5856
rtibia 98.5411
rfoot -22.6078 -15.3572
rtoes 12.9948
lfemur -82.2257 53.4803 -11.9344
ltibia 138.956
lfoot -19.6513 -22.3784
ltoes -23.6283
1759
root -1.23456 15.9677 -3.06029 156.311 141.792 165.186
lowerback 19.9144 2.69369 -11.8428
upperback 9.60671 1.74944 0.56988
thorax -0.88987 0.595757 6.97604
lowerneck -15.2817 -6.31582 -14.0732
upperneck 24.9574 -7.40161 8.81812
head 11.5508 -3.6198 4.54312
rclavicle -7.39479e-014 6.67916e-014
rhumerus -42.5231 6.11597 -89.6881
rradius 47.1589
rwrist 17.047
rhand -24.9201 4.77225
rfingers 7.12502
rthumb 1.58871 -25.2016
lclavicle -7.39479e-014 6.67916e-014
lhumerus -55.278 -23.1902 98.4711
lradius 67.0585
lwrist 7.47775
lhand -49.2043 46.7211
lfingers 7.12502
lthumb -21.8252 75.5104
rfemur -42.6305 -32.57 34.5914
rtibia 98.4375
rfoot -22.7347 -14.9701
rtoes 12.7054
lfemur -82.428 53.0443 -12.1527
ltibia 138.882
lfoot -19.5852 -22.3828
ltoes -23.2987
1760
root -1.22807 15.9748 -3.0708 156.281 141.723 164.893
lowerback 19.918 2.62316 -11.4324
upperback 9.4866 1.72025 0.674054
thorax -1.02515 0.602874 6.86151
lowerneck -15.172 -6.45598 -14.1947
upperneck 24.9011 -7.62032 8.95269
head 11.5496 -3.71662 4.57969
rclavicle 3.81667e-014 -1.90833e-014
rhumerus -42.6224 5.93947 -89.6193
rradius 46.9329
rwrist 16.928
rhand -24.8907 4.71591
rfingers 7.12502
rthumb 1.61714 -25.2577
lclavicle 3.81667e-014 -1.90833e-014
lhumerus -55.0087 -22.905 98.4667
lradius 66.5272
lwrist 7.22463
lhand -49.1475 46.388
lfingers 7.12502
lthumb -21.7706 75.1836
rfemur -42.8647 -32.8999 34.8332
rtibia 98.3134
rfoot -22.7934 -14.6128
rtoes 12.232
lfemur -82.937 52.8775 -12.39
ltibia 138.879
lfoot -19.4219 -22.4782
ltoes -22.6943
1761
root -1.22256 15.9818 -3.07914 156.131 141.691 164.486
lowerback 19.9594 2.53139 -10.9696
upperback 9.38785 1.67183 0.812599
thorax -1.15256 0.599296 6.75828
lowerneck -15.0804 -6.57385 -14.3592
upperneck 24.8151 -7.8063 9.13788
head 11.5409 -3.79641 4.64711
rclavicle 1.1609e-013 -5.40694e-014
rhumerus -42.7256 5.81808 -89.5486
rradius 46.7354
rwrist 16.7622
rhand -24.8917 4.74312
rfingers 7.12502
rthumb 1.61618 -25.2305
lclavicle 1.1609e-013 -5.40694e-014
lhumerus -54.6964 -22.5883 98.4458
lradius 65.9588
lwrist 6.94714
lhand -49.06 45.9759
lfingers 7.12502
lthumb -21.6866 74.7812
rfemur -42.9676 -33.2564 35.1602
rtibia 98.1471
rfoot -22.8764 -14.386
rtoes 11.6662
lfemur -83.3565 52.6926 -12.4306
ltibia 138.865
lfoot -19.3503 -22.4588
ltoes -22.5509
